HIERARCHY
ROOT Hips
{
  OFFSET 5.84602e-005 68.8428 3.50346
  CHANNELS 6 Xposition Yposition Zposition Zrotation Xrotation Yrotation
  JOINT Spine
  {
    OFFSET 0 8.597 -4.6522
    CHANNELS 3 Zrotation Xrotation Yrotation
    JOINT Spine1
    {
      OFFSET 0 7.8454 0.4098
      CHANNELS 3 Zrotation Xrotation Yrotation
      JOINT Spine2
      {
        OFFSET 0 9.7078 -2.1609
        CHANNELS 3 Zrotation Xrotation Yrotation
        JOINT Neck
        {
          OFFSET 0 21.8761 -0.4549
          CHANNELS 3 Zrotation Xrotation Yrotation
          JOINT Head
          {
            OFFSET 0 12.3537 3.3602
            CHANNELS 3 Zrotation Xrotation Yrotation
            End Site
            {
              OFFSET 0.0001 18.9506 0.5657
            }
          }
        }
        JOINT LeftShoulder
        {
          OFFSET 2.2086 21.1115 7.2329
          CHANNELS 3 Zrotation Xrotation Yrotation
          JOINT LeftArm
          {
            OFFSET 13.1193 3.0282 -4.8998
            CHANNELS 3 Zrotation Xrotation Yrotation
            JOINT LeftForeArm
            {
              OFFSET 27.4081 -0.0973053 -0.2375
              CHANNELS 3 Zrotation Xrotation Yrotation
              JOINT LeftHand
              {
                OFFSET 22.8641 0.0662994 -0.1369
                CHANNELS 3 Zrotation Xrotation Yrotation
                JOINT LeftHandIndex1
                {
                  OFFSET 8.8614 0.775009 2.4612
                  CHANNELS 3 Zrotation Xrotation Yrotation
                  JOINT LeftHandIndex2
                  {
                    OFFSET 3.3146 -0.808304 0.5841
                    CHANNELS 3 Zrotation Xrotation Yrotation
                    JOINT LeftHandIndex3
                    {
                      OFFSET 2.2628 -0.552002 0.3989
                      CHANNELS 3 Zrotation Xrotation Yrotation
                      End Site
                      {
                        OFFSET 1.6102 -0.4807 0.2612
                      }
                    }
                  }
                }
                JOINT LeftHandMiddle1
                {
                  OFFSET 8.9937 0.895004 0.2143
                  CHANNELS 3 Zrotation Xrotation Yrotation
                  JOINT LeftHandMiddle2
                  {
                    OFFSET 4.0984 0.0113983 -0.0242
                    CHANNELS 3 Zrotation Xrotation Yrotation
                    JOINT LeftHandMiddle3
                    {
                      OFFSET 2.2716 0.00689697 -0.0138001
                      CHANNELS 3 Zrotation Xrotation Yrotation
                      End Site
                      {
                        OFFSET 2.0404 -0.1441 0.0027
                      }
                    }
                  }
                }
                JOINT LeftHandRing1
                {
                  OFFSET 8.5234 0.597198 -2.0164
                  CHANNELS 3 Zrotation Xrotation Yrotation
                  JOINT LeftHandRing2
                  {
                    OFFSET 3.7188 -0.188293 -0.2328
                    CHANNELS 3 Zrotation Xrotation Yrotation
                    JOINT LeftHandRing3
                    {
                      OFFSET 2.1191 -0.106598 -0.1332
                      CHANNELS 3 Zrotation Xrotation Yrotation
                      End Site
                      {
                        OFFSET 1.8737 -0.2304 -0.0886
                      }
                    }
                  }
                }
                JOINT LeftHandPinky1
                {
                  OFFSET 7.9094 -0.601089 -3.4825
                  CHANNELS 3 Zrotation Xrotation Yrotation
                  JOINT LeftHandPinky2
                  {
                    OFFSET 2.2874 -0.477005 -0.6314
                    CHANNELS 3 Zrotation Xrotation Yrotation
                    JOINT LeftHandPinky3
                    {
                      OFFSET 1.6774 -0.349396 -0.4633
                      CHANNELS 3 Zrotation Xrotation Yrotation
                      End Site
                      {
                        OFFSET 1.4888 -0.4091 -0.3416
                      }
                    }
                  }
                }
                JOINT LeftHandThumb1
                {
                  OFFSET 1.833 -1.3875 1.3896
                  CHANNELS 3 Zrotation Xrotation Yrotation
                  JOINT LeftHandThumb2
                  {
                    OFFSET 3.4129 -1.121 2.5732
                    CHANNELS 3 Zrotation Xrotation Yrotation
                    JOINT LeftHandThumb3
                    {
                      OFFSET 2.2474 -0.804199 1.6192
                      CHANNELS 3 Zrotation Xrotation Yrotation
                      End Site
                      {
                        OFFSET 1.6527 -0.5689 1.1317
                      }
                    }
                  }
                }
              }
            }
          }
        }
        JOINT RightShoulder
        {
          OFFSET -2.2086 21.1115 7.2329
          CHANNELS 3 Zrotation Xrotation Yrotation
          JOINT RightArm
          {
            OFFSET -13.1216 3.0287 -4.9007
            CHANNELS 3 Zrotation Xrotation Yrotation
            JOINT RightForeArm
            {
              OFFSET -27.4081 -0.0973053 -0.2375
              CHANNELS 3 Zrotation Xrotation Yrotation
              JOINT RightHand
              {
                OFFSET -22.8641 0.0664063 -0.1369
                CHANNELS 3 Zrotation Xrotation Yrotation
                JOINT RightHandIndex1
                {
                  OFFSET -8.8614 0.774994 2.4612
                  CHANNELS 3 Zrotation Xrotation Yrotation
                  JOINT RightHandIndex2
                  {
                    OFFSET -3.3146 -0.808304 0.5841
                    CHANNELS 3 Zrotation Xrotation Yrotation
                    JOINT RightHandIndex3
                    {
                      OFFSET -2.2628 -0.552002 0.3989
                      CHANNELS 3 Zrotation Xrotation Yrotation
                      End Site
                      {
                        OFFSET -1.6102 -0.4807 0.2612
                      }
                    }
                  }
                }
                JOINT RightHandMiddle1
                {
                  OFFSET -8.9937 0.894989 0.2143
                  CHANNELS 3 Zrotation Xrotation Yrotation
                  JOINT RightHandMiddle2
                  {
                    OFFSET -4.0984 0.0113983 -0.0242
                    CHANNELS 3 Zrotation Xrotation Yrotation
                    JOINT RightHandMiddle3
                    {
                      OFFSET -2.2716 0.00691223 -0.0138001
                      CHANNELS 3 Zrotation Xrotation Yrotation
                      End Site
                      {
                        OFFSET -2.0404 -0.1441 0.0027
                      }
                    }
                  }
                }
                JOINT RightHandRing1
                {
                  OFFSET -8.5234 0.597198 -2.0164
                  CHANNELS 3 Zrotation Xrotation Yrotation
                  JOINT RightHandRing2
                  {
                    OFFSET -3.7188 -0.188309 -0.2328
                    CHANNELS 3 Zrotation Xrotation Yrotation
                    JOINT RightHandRing3
                    {
                      OFFSET -2.1191 -0.106598 -0.1332
                      CHANNELS 3 Zrotation Xrotation Yrotation
                      End Site
                      {
                        OFFSET -1.8737 -0.2304 -0.0886
                      }
                    }
                  }
                }
                JOINT RightHandPinky1
                {
                  OFFSET -7.9094 -0.601105 -3.4825
                  CHANNELS 3 Zrotation Xrotation Yrotation
                  JOINT RightHandPinky2
                  {
                    OFFSET -2.2874 -0.477005 -0.6314
                    CHANNELS 3 Zrotation Xrotation Yrotation
                    JOINT RightHandPinky3
                    {
                      OFFSET -1.6774 -0.349396 -0.4633
                      CHANNELS 3 Zrotation Xrotation Yrotation
                      End Site
                      {
                        OFFSET -1.4888 -0.4091 -0.3416
                      }
                    }
                  }
                }
                JOINT RightHandThumb1
                {
                  OFFSET -1.833 -1.38751 1.3896
                  CHANNELS 3 Zrotation Xrotation Yrotation
                  JOINT RightHandThumb2
                  {
                    OFFSET -3.41299 -1.12099 2.5732
                    CHANNELS 3 Zrotation Xrotation Yrotation
                    JOINT RightHandThumb3
                    {
                      OFFSET -2.24741 -0.804108 1.6192
                      CHANNELS 3 Zrotation Xrotation Yrotation
                      End Site
                      {
                        OFFSET -1.6527 -0.5689 1.1317
                      }
                    }
                  }
                }
              }
            }
          }
        }
      }
    }
  }
  JOINT RightUpLeg
  {
    OFFSET -9.1966 3.8861 -0.7581
    CHANNELS 3 Zrotation Xrotation Yrotation
    JOINT RightLeg
    {
      OFFSET -0.7359 -41.0265 0
      CHANNELS 3 Zrotation Xrotation Yrotation
      JOINT RightFoot
      {
        OFFSET 0 -40.2855 0
        CHANNELS 3 Zrotation Xrotation Yrotation
        JOINT RightToeBase
        {
          OFFSET 0 -5.6122 11.7359
          CHANNELS 3 Zrotation Xrotation Yrotation
          End Site
          {
            OFFSET 0 0 7.8731
          }
        }
      }
    }
  }
  JOINT LeftUpLeg
  {
    OFFSET 9.1965 3.8864 -0.7581
    CHANNELS 3 Zrotation Xrotation Yrotation
    JOINT LeftLeg
    {
      OFFSET 0.7359 -41.0268 0
      CHANNELS 3 Zrotation Xrotation Yrotation
      JOINT LeftFoot
      {
        OFFSET 0 -40.2855 0
        CHANNELS 3 Zrotation Xrotation Yrotation
        JOINT LeftToeBase
        {
          OFFSET 0 -5.6122 11.7359
          CHANNELS 3 Zrotation Xrotation Yrotation
          End Site
          {
            OFFSET 0 0 7.8731
          }
        }
      }
    }
  }
}
MOTION
Frames:	4
Frame Time:	0.0333333
5.84602e-005 68.8428 3.50346 0 0 -0 0 0 -0 0 0 -0 0 0 -0 0 0 -0 0 0 -0 0 0 -0 0 0 -0 0 0 -0 0 0 -0 0 0 -0 0 0 -0 0 0 -0 0 0 -0 -0.0146107 -8.87603e-005 -2.63497e-007 2.99804e-018 -2.42657e-020 -1.42182e-022 0 0 -0 -0.0187562 -0.001176 5.858e-005 5.06224e-018 3.88251e-019 1.21329e-020 0 0 -0 -0.012269 -0.00324817 0.000675346 -1.74678e-018 3.88251e-019 -0 0 0 -0 0 0 -0 0 0 -0 0 0 -0 0 0 -0 0 0 -0 0 0 -0 0 0 -0 0 0 -0 0 0 -0 0 0 -0 0.0149955 -9.10982e-005 2.64101e-007 -9.69331e-018 1.21329e-020 -4.7394e-023 0 0 -0 0.0189956 -0.00119102 -5.96516e-005 -5.41541e-019 0 2.42657e-020 0 0 -0 0.0122698 -0.00324857 -0.000673756 -2.00796e-019 0 -1.94126e-019 0 0 -0 0 0 -0 0 0 -0 3.39842 1.33031 -0.0637918 -5.65207e-008 0.834868 -0.000436188 -3.39935 -2.16518 -0.0642563 -8.89002e-024 -1.18485e-023 -1.48106e-024 -3.39844 1.35642 0.0640283 -3.18788e-007 0.782166 -0.000588827 3.39931 -2.13858 0.0634662 1.1399e-023 0 -0 
0.00127279 68.713 49.5823 180 75.004 -180 -0.331629 -1.27996 -0.707435 -0.679298 -2.55568 -1.4228 -0.679298 -2.55571 -1.4228 1.79137e-005 0.215111 2.36661e-005 -1.24916e-006 0.274528 -1.4463e-006 13.6791 -0.55307 -42.7965 -16.1995 -26.2937 -26.2417 14.4716 -2.68668 -26.1334 42.9158 -9.88477 -5.54635 5.60439e-007 -1.23049e-007 7.5532e-007 6.36111e-015 0 -3.18055e-015 3.18055e-015 -2.38542e-015 -0 5.60439e-007 -1.23049e-007 7.5532e-007 -0.0146321 -8.7438e-005 -7.19321e-006 3.18055e-015 1.51076e-014 4.77083e-015 5.60439e-007 -1.23049e-007 7.5532e-007 -0.018782 -0.00117621 5.63096e-005 6.36111e-015 -7.95139e-016 -0 5.60439e-007 -1.23049e-007 7.5532e-007 -0.012155 -0.00322003 0.000676636 -3.18055e-015 -1.59028e-015 1.59028e-015 5.60439e-007 -1.23049e-007 7.5532e-007 6.36111e-015 0 -3.18055e-015 3.18055e-015 -2.38542e-015 -0 -13.3454 -0.198719 41.7665 16.9076 -25.8087 27.7677 -14.8081 -2.91612 27.668 -43.3553 -8.56531 4.09244 3.18055e-015 -3.18055e-015 3.18055e-015 3.18055e-015 -2.38542e-015 4.77083e-015 1.10348e-031 -3.97569e-015 1.59028e-015 3.18055e-015 -3.18055e-015 3.18055e-015 0.0150544 -9.1607e-005 3.04603e-006 3.18055e-015 -3.18055e-015 -3.18055e-015 3.18055e-015 -3.18055e-015 3.18055e-015 0.0189805 -0.00118975 -5.86602e-005 -0 -2.38542e-015 -0 3.18055e-015 -3.18055e-015 3.18055e-015 0.0123132 -0.00326109 -0.000679459 6.36111e-015 7.95139e-016 -0 3.18055e-015 -3.18055e-015 3.18055e-015 3.18055e-015 -2.38542e-015 4.77083e-015 1.10348e-031 -3.97569e-015 1.59028e-015 -164.248 -77.6392 -163.082 4.80737 2.32436 -1.6689 -6.73543 35.7284 -2.6073 1.98785e-015 -3.18055e-015 -1.98785e-016 163.564 -76.9917 164.23 -5.69953 3.71287 1.73227 8.51717 34.8476 0.537536 5.96354e-016 0 -1.19271e-015 
0.00154924 68.7131 49.3412 180 75.004 -180 -0.337845 -1.59564 -0.707964 -0.6958 -3.18696 -1.42616 -0.6958 -3.18695 -1.42616 -2.44997e-005 0.213972 -4.18804e-005 7.96198e-007 0.273229 2.67487e-007 13.289 0.498458 -43.0788 -16.1995 -26.2937 -26.2416 14.4716 -2.68669 -26.1335 42.392 -9.55041 -5.73926 -5.23416e-007 6.2302e-007 2.52732e-007 -1.04683e-006 1.24604e-006 5.05463e-007 -5.23416e-007 6.2302e-007 2.52732e-007 -5.23416e-007 6.2302e-007 2.52732e-007 -0.0146258 -8.85732e-005 1.47799e-006 -5.23409e-007 6.22988e-007 2.52811e-007 -5.23416e-007 6.2302e-007 2.52732e-007 -0.0187595 -0.00117494 6.02591e-005 -5.23405e-007 6.2298e-007 2.52839e-007 -5.23416e-007 6.2302e-007 2.52732e-007 -0.0122431 -0.00324115 0.000677654 -5.234e-007 6.22998e-007 2.52813e-007 -5.23416e-007 6.2302e-007 2.52732e-007 -1.04683e-006 1.24604e-006 5.05463e-007 -5.23416e-007 6.2302e-007 2.52732e-007 -12.9758 0.807824 42.1072 16.9076 -25.8087 27.7678 -14.8082 -2.91613 27.668 -42.7834 -8.29762 4.4009 0 3.18055e-015 -0 0 0 -3.18055e-015 0 2.38542e-015 -0 0 3.18055e-015 -0 0.0150211 -9.00681e-005 4.23427e-006 -6.36111e-015 -4.77083e-015 -1.59028e-015 0 3.18055e-015 -0 0.0190111 -0.00119393 -6.48587e-005 3.18055e-015 -5.56597e-015 -0 0 3.18055e-015 -0 0.012321 -0.00326189 -0.000670607 -3.18055e-015 -3.18055e-015 -1.59028e-015 0 3.18055e-015 -0 0 0 -3.18055e-015 0 2.38542e-015 -0 -164.248 -77.6384 -163.082 4.80737 2.32444 -1.66885 -6.73523 35.7291 -2.60732 -3.61024e-007 -8.02855e-006 -1.62031e-007 163.945 -76.8498 164.407 -5.69982 3.75729 1.73791 8.33646 35.064 0.753139 7.95139e-016 -6.36111e-015 7.95139e-016 
0.00182872 68.7131 49.1 180 75.004 -180 -0.343909 -1.91745 -0.708169 -0.712115 -3.83043 -1.42905 -0.712116 -3.83044 -1.42905 -8.54929e-006 0.213023 -1.75945e-005 -1.10977e-007 0.271944 -8.75613e-007 12.9035 1.55382 -43.3544 -16.1995 -26.2937 -26.2416 14.4716 -2.68668 -26.1335 41.8695 -9.21417 -5.92899 0 0 -1.59028e-015 3.18055e-015 -3.97569e-015 -3.18055e-015 -1.32417e-031 -1.59028e-015 -4.77083e-015 0 0 -1.59028e-015 -0.0146516 -9.00677e-005 1.8557e-006 -0 -2.38542e-015 -0 0 0 -1.59028e-015 -0.0188166 -0.00118049 5.72907e-005 -3.18055e-015 0 -3.18055e-015 0 0 -1.59028e-015 -0.0122189 -0.0032351 0.000672796 -3.18055e-015 -5.56597e-015 -1.59028e-015 0 0 -1.59028e-015 3.18055e-015 -3.97569e-015 -3.18055e-015 -1.32417e-031 -1.59028e-015 -4.77083e-015 -12.6114 1.81827 42.4422 16.9076 -25.8087 27.7678 -14.8081 -2.91611 27.668 -42.2131 -8.02676 4.7066 -6.36111e-015 -7.95139e-016 1.59028e-015 -9.54166e-015 0 -0 -6.36111e-015 -1.59028e-015 1.59028e-015 -6.36111e-015 -7.95139e-016 1.59028e-015 0.0150105 -8.82097e-005 5.69667e-007 3.18055e-015 2.38542e-015 -3.18055e-015 -6.36111e-015 -7.95139e-016 1.59028e-015 0.0189255 -0.00119044 -6.83448e-005 -2.64834e-031 4.77083e-015 3.18055e-015 -6.36111e-015 -7.95139e-016 1.59028e-015 0.0121759 -0.00322094 -0.000664462 -0 -2.38542e-015 -0 -6.36111e-015 -7.95139e-016 1.59028e-015 -9.54166e-015 0 -0 -6.36111e-015 -1.59028e-015 1.59028e-015 -164.267 -77.6239 -163.102 4.80747 2.35354 -1.67019 -6.73387 35.7152 -2.60866 -3.15105e-007 -6.41844e-006 -1.10335e-007 164.322 -76.7063 164.581 -5.70014 3.8045 1.74361 8.15401 35.2785 0.970424 -1.19271e-015 3.18055e-015 -1.39149e-015 
